<?xml version="1.0" encoding="iso-8859-1"?>
<!-- Uploaded to: SVG Repo, www.svgrepo.com, Generator: SVG Repo Mixer Tools -->
<svg height="800px" width="800px" version="1.1" id="Layer_1" xmlns="http://www.w3.org/2000/svg" xmlns:xlink="http://www.w3.org/1999/xlink" 
	 viewBox="0 0 512 512" xml:space="preserve">
<g transform="translate(1 1)">
	<path style="fill:#FFFFFF;" d="M438.04,451.267c-10.24,8.533-23.04,12.8-34.133,17.067c-11.093-4.267-23.893-8.533-34.133-17.067
		c-27.307-21.333-43.52-51.2-48.64-85.333H36.973c-9.387,0-17.067,7.68-17.067,17.067v102.4c0,9.387,7.68,17.067,17.067,17.067
		h409.6c9.387,0,17.067-7.68,17.067-17.067v-61.44C456.813,434.2,448.28,443.587,438.04,451.267"/>
	<path style="fill:#FFDD09;" d="M438.04,451.267c-10.24,8.533-23.04,12.8-34.133,17.067c-11.093-4.267-23.893-8.533-34.133-17.067
		c-27.307-21.333-43.52-51.2-48.64-85.333H62.573c-9.387,0-17.067,7.68-17.067,17.067v102.4c0,9.387,7.68,17.067,17.067,17.067h384
		c9.387,0,17.067-7.68,17.067-17.067v-61.44C456.813,434.2,448.28,443.587,438.04,451.267"/>
	<path style="fill:#FFFFFF;" d="M318.573,340.333v-17.067h-281.6v42.667h284.16C319.427,357.4,318.573,348.867,318.573,340.333"/>
	<path style="fill:#FFDD09;" d="M341.613,340.333v-17.067h-281.6v42.667h284.16C342.467,357.4,341.613,348.867,341.613,340.333"/>
	<path style="fill:#FD9808;" d="M318.573,263.533c40.107-5.12,67.413-21.333,85.333-34.133c13.653,9.387,33.28,21.333,59.733,29.013
		V203.8c0-9.387-7.68-17.067-17.067-17.067h-409.6c-9.387,0-17.067,7.68-17.067,17.067v102.4c0,9.387,7.68,17.067,17.067,17.067
		h281.6V263.533z"/>
	<path style="fill:#FFDD09;" d="M310.04,263.533c37.547-5.12,68.267-21.333,85.333-34.133c12.8,9.387,17.92,9.387,42.667,17.067
		V203.8c0-9.387-6.827-17.067-16.213-17.067H36.12c-8.533,0-16.213,7.68-16.213,17.067v102.4c0,9.387,6.827,17.067,16.213,17.067
		h273.92V263.533z"/>
	<path style="fill:#FFFFFF;" d="M46.36,306.2V203.8c0-9.387,6.827-17.067,16.213-17.067h-25.6c-8.533,0-16.213,7.68-16.213,17.067
		v102.4c0,9.387,6.827,17.067,16.213,17.067h25.6C54.04,323.267,46.36,315.587,46.36,306.2"/>
	<path style="fill:#15A143;" d="M403.907,468.333c-11.093-4.267-23.893-8.533-34.133-17.067c-33.28-26.453-51.2-65.707-51.2-110.933
		v-76.8c40.107-5.12,67.413-21.333,85.333-34.133c17.92,12.8,45.227,29.013,85.333,34.133v76.8c0,45.227-17.92,84.48-51.2,110.933
		C427.8,459.8,415,464.067,403.907,468.333"/>
	<path style="fill:#1CD759;" d="M391.107,468.333c-9.387-4.267-19.627-8.533-29.013-17.067
		c-28.16-26.453-43.52-65.707-43.52-110.933v-76.8c34.133-5.12,57.173-21.333,72.533-34.133c15.36,12.8,38.4,29.013,72.533,34.133
		v76.8c0,45.227-15.36,84.48-43.52,110.933C410.733,459.8,400.493,464.067,391.107,468.333"/>
	<g>
		<polygon style="fill:#FD9808;" points="207.64,186.733 446.573,186.733 446.573,144.067 207.64,144.067 		"/>
		<polygon style="fill:#FD9808;" points="62.573,280.6 156.44,280.6 156.44,229.4 62.573,229.4 		"/>
	</g>
	<polygon style="fill:#FFFFFF;" points="36.973,186.733 275.907,186.733 275.907,144.067 36.973,144.067 	"/>
	<polygon style="fill:#FFDD09;" points="62.573,186.733 420.973,186.733 420.973,144.067 62.573,144.067 	"/>
	<path style="fill:#FD9808;" d="M446.573,144.067h-230.4c-9.387,0-17.067-7.68-17.067-17.067V24.6
		c0-9.387,7.68-17.067,17.067-17.067h230.4c9.387,0,17.067,7.68,17.067,17.067V127C463.64,136.387,455.96,144.067,446.573,144.067"
		/>
	<path style="fill:#FFFFFF;" d="M267.373,144.067h-230.4c-9.387,0-17.067-7.68-17.067-17.067V24.6
		c0-9.387,7.68-17.067,17.067-17.067h230.4c9.387,0,17.067,7.68,17.067,17.067V127C284.44,136.387,276.76,144.067,267.373,144.067"
		/>
	<path style="fill:#FFDD09;" d="M420.973,144.067h-358.4c-9.387,0-17.067-7.68-17.067-17.067V24.6
		c0-9.387,7.68-17.067,17.067-17.067h358.4c9.387,0,17.067,7.68,17.067,17.067V127C438.04,136.387,430.36,144.067,420.973,144.067"
		/>
	<path d="M446.573,152.6h-409.6c-13.653,0-25.6-11.093-25.6-25.6V24.6c0-13.653,11.093-25.6,25.6-25.6h409.6
		c13.653,0,25.6,11.093,25.6,25.6V127C472.173,141.507,461.08,152.6,446.573,152.6z M36.973,16.067c-5.12,0-8.533,3.413-8.533,8.533
		V127c0,4.267,3.413,8.533,8.533,8.533h409.6c4.267,0,8.533-3.413,8.533-8.533V24.6c0-4.267-3.413-8.533-8.533-8.533H36.973z"/>
	<path d="M284.44,280.6c0,5.12-3.413,8.533-8.533,8.533c-5.12,0-8.533-3.413-8.533-8.533s3.413-8.533,8.533-8.533
		C281.027,272.067,284.44,275.48,284.44,280.6"/>
	<path d="M216.173,280.6c0,5.12-3.413,8.533-8.533,8.533c-5.12,0-8.533-3.413-8.533-8.533s3.413-8.533,8.533-8.533
		C212.76,272.067,216.173,275.48,216.173,280.6"/>
	<path d="M250.307,280.6c0,5.12-3.413,8.533-8.533,8.533c-5.12,0-8.533-3.413-8.533-8.533s3.413-8.533,8.533-8.533
		C246.893,272.067,250.307,275.48,250.307,280.6"/>
	<path d="M233.24,255c0,5.12-3.413,8.533-8.533,8.533c-5.12,0-8.533-3.413-8.533-8.533s3.413-8.533,8.533-8.533
		C229.827,246.467,233.24,249.88,233.24,255"/>
	<path d="M267.373,255c0,5.12-3.413,8.533-8.533,8.533c-5.12,0-8.533-3.413-8.533-8.533s3.413-8.533,8.533-8.533
		C263.96,246.467,267.373,249.88,267.373,255"/>
	<path d="M275.907,237.933H207.64c-5.12,0-8.533-3.413-8.533-8.533c0-5.12,3.413-8.533,8.533-8.533h68.267
		c5.12,0,8.533,3.413,8.533,8.533C284.44,234.52,281.027,237.933,275.907,237.933z"/>
	<path d="M156.44,289.133H62.573c-5.12,0-8.533-3.413-8.533-8.533v-51.2c0-5.12,3.413-8.533,8.533-8.533h93.867
		c5.12,0,8.533,3.413,8.533,8.533v51.2C164.973,285.72,161.56,289.133,156.44,289.133z M71.107,272.067h76.8v-34.133h-76.8V272.067z
		"/>
	<path d="M455.107,195.267H28.44v-59.733h426.667V195.267z M45.507,178.2H438.04v-25.6H45.507V178.2z"/>
	<path d="M403.907,476.867c-0.853,0-1.707,0-3.413-0.853l-3.413-0.853c-11.093-4.267-22.187-8.533-33.28-17.067
		c-34.133-27.307-53.76-69.12-53.76-117.76v-76.8c0-4.267,3.413-7.68,7.68-8.533c36.693-4.267,61.44-18.773,81.92-32.427
		c2.56-1.707,6.827-1.707,9.387,0c19.627,13.653,45.227,28.16,81.92,32.427c4.267,0.853,7.68,4.267,7.68,8.533v76.8
		c0,48.64-19.627,90.453-54.613,117.76c-10.24,8.533-22.187,12.8-33.28,17.067l-3.413,0.853
		C405.613,476.867,404.76,476.867,403.907,476.867z M327.107,271.213v69.12c0,42.667,17.067,80.213,47.787,104.107
		c8.533,6.827,17.92,10.24,29.013,14.507l0,0l0,0c10.24-4.267,20.48-7.68,29.013-14.507c30.72-23.893,47.787-61.44,47.787-104.107
		v-69.12c-33.28-5.12-57.173-18.773-76.8-31.573C384.28,252.44,360.387,265.24,327.107,271.213z"/>
	<path d="M361.24,374.467c-5.12,0-8.533-3.413-8.533-8.533V306.2c0-3.413,1.707-5.973,5.12-7.68l34.133-17.067
		c4.267-1.707,9.387,0,11.093,3.413c1.707,3.413,0,9.387-3.413,11.093l-29.867,15.36v54.613
		C369.773,371.053,366.36,374.467,361.24,374.467z"/>
	<path d="M327.107,331.8H36.973c-13.653,0-25.6-11.093-25.6-25.6V203.8c0-13.653,11.093-25.6,25.6-25.6h409.6
		c13.653,0,25.6,11.093,25.6,25.6v65.707l-11.093-3.413c-23.893-6.827-42.667-17.067-57.173-26.453
		c-19.627,12.8-43.52,25.6-76.8,31.573V331.8z M36.973,195.267c-4.267,0-8.533,3.413-8.533,8.533v102.4
		c0,4.267,3.413,8.533,8.533,8.533H310.04v-58.88l7.68-0.853c36.693-4.267,61.44-18.773,81.92-32.427l5.12-3.413l5.12,3.413
		c11.947,8.533,27.307,17.92,46.08,24.747V203.8c0-4.267-3.413-8.533-8.533-8.533H36.973z"/>
	<path d="M330.52,374.467H28.44v-59.733h298.667v25.6c0,7.68,0.853,15.36,1.707,23.893L330.52,374.467z M45.507,357.4h265.387
		c-0.853-5.973-0.853-11.947-0.853-17.067V331.8H45.507V357.4z"/>
	<path d="M446.573,511h-409.6c-13.653,0-25.6-11.093-25.6-25.6V383c0-13.653,11.093-25.6,25.6-25.6H327.96l0.853,6.827
		c5.12,33.28,21.333,60.587,46.08,80.213c8.533,6.827,17.92,10.24,29.013,14.507l0,0l0,0c10.24-4.267,20.48-7.68,29.013-14.507l0,0
		c8.533-6.827,17.067-15.36,23.893-25.6l15.36-22.187V485.4C472.173,499.907,461.08,511,446.573,511z M36.973,374.467
		c-4.267,0-8.533,3.413-8.533,8.533v102.4c0,4.267,3.413,8.533,8.533,8.533h409.6c4.267,0,8.533-3.413,8.533-8.533V447
		c-3.413,3.413-7.68,7.68-11.947,10.24l0,0c-10.24,8.533-22.187,12.8-33.28,17.067l-5.973,3.413l-5.973-2.56
		c-11.093-4.267-22.187-8.533-33.28-17.067c-26.453-20.48-43.52-49.493-51.2-83.627H36.973z M438.04,451.267L438.04,451.267
		L438.04,451.267z"/>
</g>
</svg>